<svg xmlns="http://www.w3.org/2000/svg" width="1800" height="1200" viewBox="0 0 1800 1200">
  <defs>
    <style>
      .bg { fill:#0b1220; }
      .lane { fill:#131d33; stroke:#2a3a61; stroke-width:2; rx:18; }
      .box { fill:#1a2846; stroke:#466097; stroke-width:2; rx:14; }
      .title { fill:#e8eefc; font:700 46px Arial, sans-serif; }
      .h { fill:#cfe0ff; font:700 28px Arial, sans-serif; }
      .t { fill:#e8eefc; font:600 22px Arial, sans-serif; }
      .s { fill:#c7d8f7; font:500 18px Arial, sans-serif; }
      .foot { fill:#9fb1d9; font:500 17px Arial, sans-serif; }
      .arrow { stroke:#8cc8ff; stroke-width:4; fill:none; marker-end:url(#m); }
    </style>
    <marker id="m" markerWidth="10" markerHeight="10" refX="8" refY="3" orient="auto">
      <path d="M0,0 L0,6 L9,3 z" fill="#8cc8ff" />
    </marker>
  </defs>

  <rect class="bg" x="0" y="0" width="1800" height="1200"/>
  <text class="title" x="900" y="68" text-anchor="middle">Dutch Idea Pipeline Infrastructure (v2.0)</text>

  <rect class="lane" x="40" y="120" width="540" height="1000"/>
  <rect class="lane" x="620" y="120" width="540" height="1000"/>
  <rect class="lane" x="1200" y="120" width="560" height="1000"/>
  <text class="h" x="310" y="165" text-anchor="middle">Orchestration</text>
  <text class="h" x="890" y="165" text-anchor="middle">Agents &amp; Logic</text>
  <text class="h" x="1480" y="165" text-anchor="middle">Data, UI &amp; Delivery</text>

  <!-- Left -->
  <rect class="box" x="90" y="210" width="440" height="90"/><text class="t" x="310" y="248" text-anchor="middle">4h Cron Job</text><text class="s" x="310" y="273" text-anchor="middle">(4206fae5-...)</text>
  <rect class="box" x="90" y="340" width="440" height="130"/><text class="t" x="310" y="380" text-anchor="middle">State Machine</text><text class="s" x="310" y="406" text-anchor="middle">INIT → SCOUT → ANALYST → DEV</text><text class="s" x="310" y="430" text-anchor="middle">→ VALIDATE → RECOVER? → PUBLISH</text>
  <rect class="box" x="90" y="510" width="440" height="110"/><text class="t" x="310" y="552" text-anchor="middle">Auto Recovery Branch</text><text class="s" x="310" y="578" text-anchor="middle">Deterministic fallback + amber</text>
  <rect class="box" x="90" y="660" width="440" height="100"/><text class="t" x="310" y="700" text-anchor="middle">Resumable Runs</text><text class="s" x="310" y="726" text-anchor="middle">state-machine.json + run-events.jsonl</text>
  <rect class="box" x="90" y="800" width="440" height="120"/><text class="t" x="310" y="842" text-anchor="middle">Model Policy</text><text class="s" x="310" y="868" text-anchor="middle">local-first routing + caps</text><text class="s" x="310" y="892" text-anchor="middle">pipeline-model-policy.json</text>
  <rect class="box" x="90" y="960" width="440" height="120"/><text class="t" x="310" y="1002" text-anchor="middle">Error Taxonomy</text><text class="s" x="310" y="1028" text-anchor="middle">validation-report.json</text><text class="s" x="310" y="1052" text-anchor="middle">normalized codes</text>

  <!-- Middle -->
  <rect class="box" x="690" y="210" width="400" height="90"/><text class="t" x="890" y="248" text-anchor="middle">Strategy Focus</text><text class="s" x="890" y="273" text-anchor="middle">research-focus-next-day.md</text>
  <rect class="box" x="690" y="340" width="400" height="90"/><text class="t" x="890" y="378" text-anchor="middle">Forum Scout (Ollama-first)</text>
  <rect class="box" x="690" y="470" width="400" height="90"/><text class="t" x="890" y="508" text-anchor="middle">Business Analyst</text><text class="s" x="890" y="534" text-anchor="middle">/35 scoring + hard gates</text>
  <rect class="box" x="690" y="600" width="400" height="90"/><text class="t" x="890" y="638" text-anchor="middle">Senior Dev Assessment</text>
  <rect class="box" x="690" y="740" width="400" height="110"/><text class="t" x="890" y="780" text-anchor="middle">Weekly Decision Engine</text><text class="s" x="890" y="806" text-anchor="middle">single product bet + confidence</text>
  <rect class="box" x="690" y="890" width="400" height="110"/><text class="t" x="890" y="930" text-anchor="middle">Validation Layer</text><text class="s" x="890" y="956" text-anchor="middle">scout / analyst / dev schemas</text>

  <!-- Right -->
  <rect class="box" x="1260" y="210" width="440" height="110"/><text class="t" x="1480" y="250" text-anchor="middle">Manifest Layer</text><text class="s" x="1480" y="276" text-anchor="middle">run / ideas / trend / ops</text>
  <rect class="box" x="1260" y="360" width="440" height="110"/><text class="t" x="1480" y="400" text-anchor="middle">Dashboard v2.0</text><text class="s" x="1480" y="426" text-anchor="middle">manifest-only • BMC + Ops panels</text>
  <rect class="box" x="1260" y="510" width="440" height="110"/><text class="t" x="1480" y="550" text-anchor="middle">Latest Artifacts</text><text class="s" x="1480" y="576" text-anchor="middle">01..04 + metadata + weekly decision</text>
  <rect class="box" x="1260" y="660" width="440" height="110"/><text class="t" x="1480" y="700" text-anchor="middle">History + Trends</text><text class="s" x="1480" y="726" text-anchor="middle">run-history.jsonl + snapshots</text>
  <rect class="box" x="1260" y="810" width="440" height="90"/><text class="t" x="1480" y="848" text-anchor="middle">Local Mirror: /Users/mcbot/files/...</text>
  <rect class="box" x="1260" y="950" width="440" height="110"/><text class="t" x="1480" y="990" text-anchor="middle">GitHub + Render</text><text class="s" x="1480" y="1016" text-anchor="middle">main branch auto-deploy</text>

  <!-- arrows -->
  <path class="arrow" d="M310 300 L310 340"/><path class="arrow" d="M310 470 L310 510"/><path class="arrow" d="M310 620 L310 660"/><path class="arrow" d="M310 760 L310 800"/><path class="arrow" d="M310 920 L310 960"/>
  <path class="arrow" d="M530 390 L690 390"/><path class="arrow" d="M530 565 L690 515"/><path class="arrow" d="M530 705 L690 625"/><path class="arrow" d="M530 1020 L690 945"/>
  <path class="arrow" d="M890 300 L890 340"/><path class="arrow" d="M890 430 L890 470"/><path class="arrow" d="M890 560 L890 600"/><path class="arrow" d="M890 690 L890 740"/><path class="arrow" d="M890 850 L890 890"/>
  <path class="arrow" d="M1090 390 L1260 265"/><path class="arrow" d="M1090 515 L1260 415"/><path class="arrow" d="M1090 645 L1260 565"/><path class="arrow" d="M1090 795 L1260 715"/><path class="arrow" d="M1090 945 L1260 265"/>
  <path class="arrow" d="M1480 320 L1480 360"/><path class="arrow" d="M1480 470 L1480 510"/><path class="arrow" d="M1480 620 L1480 660"/><path class="arrow" d="M1480 770 L1480 810"/><path class="arrow" d="M1480 900 L1480 950"/>

  <text class="foot" x="60" y="1150">Generated 2026-02-17 — includes v2.0 state machine, manifests, ops metrics and weekly decision engine.</text>
</svg>